<?xml version="1.0" encoding="utf-8"?>
<!-- Generator: Adobe Illustrator 24.1.1, SVG Export Plug-In . SVG Version: 6.00 Build 0)  -->
<svg version="1.1" id="Layer_1" xmlns="http://www.w3.org/2000/svg" xmlns:xlink="http://www.w3.org/1999/xlink" x="0px" y="0px"
	 viewBox="0 0 296.1 139.6" style="enable-background:new 0 0 296.1 139.6;" xml:space="preserve">
<style type="text/css">
	.st0{fill:none;stroke:#00AEEF;stroke-miterlimit:10;}
	.st1{fill:#5FCCF5;}
	.st2{fill:#81D4F7;}
	.st3{fill:#4EB8E9;}
	.st4{fill:#5CBEEC;}
	.st5{enable-background:new    ;}
	.st6{fill:#6D6B73;}
</style>
<path class="st0" d="M299.2,155.6"/>
<path class="st0" d="M289.1,155"/>
<path class="st0" d="M285.8,153.1"/>
<path class="st0" d="M308.9,153"/>
<g>
	<path class="st1" d="M43.2,3.1c0.6,28.7-4.9,49.8,13.5,64.2L48,118.4C34.7,100.7-4.5,60.7,43.2,3.1z"/>
	<path class="st2" d="M41,128.2c6.3-5.6,15.8-13.7,23.5-24.4c9.9-13.7,17-31.6,11.1-54.2C73,39.5,67.7,28.4,58.9,16.3
		c-4.2,28-5.1,42.6-20.1,61.9l0.1,7.7l0.5,42.1v0.4l0.4-0.1"/>
	<path class="st3" d="M55.3,121.4l6.1-3.5l12.9-9l0.2-0.2c13.6-13.2,22.3-34.1,6.9-68.9c-1.5,3.5-3.4,6.8-5.6,9.9
		c-5.2,7-12,14.3-19.8,21.5c-4.3,4-8.8,7.9-13.5,11.7L40,85.1L38.9,86c-2.9,2.3-5.8,4.7-8.7,6.9c-6.3,4.8-12.4,9.4-18.2,13.7l0,0
		L39.5,128l0,0l0.4,0.3l1.1-0.2c1-0.2,1.9-0.4,2.8-0.7"/>
	<path class="st4" d="M74.2,108.9l-7.9,5.9l-2.8,1.8l-7.2,4.3c-2.1,1.3-4.2,2.5-6.5,3.6l-3.6,1.8c-1.4,0.7-2.4,1-2.4,1.1
		c-1.7,0.7-1.8,0.7-2.6,1l-1.1,0.4c-1.9,0.6-3,0.9-4,0.6c-1.6-0.3-3.1-0.8-4.5-1.5l0,0c-8.5-3.6-13.9-11.2-19.4-21.3l0,0
		C8.5,100,6.1,92.9,5,85.5c-0.2-1.6-0.3-3.3-0.4-5c-0.9-17.4,2.8-35,12-55.5c0.2-0.4,0.9-0.3,0.9,0.2C16.9,31.6,18.3,39,21,46.5
		c3.8,10.7,10.3,21.9,17.9,31.8c0.4,0.6,0.8,1.1,1.3,1.6C41,81,41.9,82,42.7,83c3,3.7,6.3,7.2,9.7,10.6c3.8,3.8,7.9,7.2,12.3,10.2
		c2.9,2.1,6.2,3.8,9.6,4.9C74.2,108.7,74.2,108.8,74.2,108.9z"/>
</g>
<path class="st0" d="M97.5,104"/>
<g>
	<g class="st5">
		<path class="st6" d="M146.1,64.1c-1.5-3.3-3.8-5.8-6.7-7.6s-6.3-2.7-10.2-2.7c-3.9,0-7.4,0.9-10.5,2.7s-5.6,4.3-7.4,7.7
			c-1.8,3.3-2.7,7.2-2.7,11.6s0.9,8.2,2.7,11.5c1.8,3.3,4.2,5.9,7.4,7.6c3.1,1.8,6.6,2.7,10.5,2.7c5.4,0,9.9-1.6,13.4-4.9
			s5.6-7.7,6.2-13.2h-22.2v-5.9h30v5.6c-0.4,4.6-1.9,8.8-4.3,12.6c-2.5,3.8-5.7,6.8-9.7,9s-8.5,3.3-13.4,3.3
			c-5.2,0-9.9-1.2-14.2-3.6c-4.3-2.4-7.6-5.8-10.1-10.1c-2.5-4.3-3.7-9.2-3.7-14.6s1.2-10.3,3.7-14.7s5.9-7.7,10.1-10.2
			c4.3-2.4,9-3.6,14.2-3.6c5.9,0,11.2,1.5,15.7,4.4c4.6,2.9,7.9,7.1,10,12.4H146.1z"/>
		<path class="st6" d="M166.4,51.3c-1-1-1.4-2.1-1.4-3.5s0.5-2.6,1.4-3.5s2-1.4,3.3-1.4s2.6,0.5,3.5,1.4c1,1,1.5,2.2,1.5,3.6
			c0,1.4-0.5,2.6-1.5,3.6c-0.9,0.9-2.2,1.4-3.5,1.4C168.4,52.7,167.3,52.2,166.4,51.3z M173.4,59.9v43.8h-7.3V59.9H173.4z"/>
		<path class="st6" d="M194.7,65.9v25.8c0,2.1,0.5,3.6,1.4,4.5s2.5,1.3,4.7,1.3h5.4v6.2h-6.6c-4.1,0-7.1-0.9-9.1-2.8s-3-4.9-3-9.2
			V65.9h-5.7v-6h5.7v-11h7.3v11h11.4v6H194.7z"/>
		<path class="st6" d="M222.2,97.8h19.5v5.9h-26.8V48h7.3V97.8z"/>
		<path class="st6" d="M256.8,59.9v43.8h-7.3V59.9H256.8z"/>
		<path class="st6" d="M278,65.9v25.8c0,2.1,0.5,3.6,1.4,4.5s2.5,1.3,4.7,1.3h5.4v6.2h-6.6c-4.1,0-7.1-0.9-9.1-2.8s-3-4.9-3-9.2
			V65.9h-5.7v-6h5.7v-11h7.3v11h11.4v6H278z"/>
	</g>
	<g>
		<path class="st6" d="M252.6,32.1c0.1,4.9-0.7,8.4,2,10.9l-1.3,8.6C251.3,48.6,245.6,41.9,252.6,32.1z"/>
		<path class="st6" d="M252.2,53.3c1.3-1.2,2.4-2.6,3.4-4.1c1.8-2.7,2.4-6,1.6-9.2c-0.5-2-1.3-3.9-2.5-5.6
			c-0.6,4.7-0.7,7.2-2.9,10.5v1.3l0.1,7.1v0.1h0.1"/>
		<path class="st6" d="M254.3,52.2l0.9-0.6l1.9-1.5l0,0c2-2.2,3.3-5.8,1-11.7c-0.2,0.6-0.5,1.1-0.8,1.6c-0.8,1.3-1.8,2.5-2.9,3.7
			c-0.6,0.7-1.3,1.3-2,2l-0.4,0.4l-0.2,0.1c-0.4,0.4-0.8,0.8-1.3,1.2c-0.9,0.8-1.8,1.6-2.6,2.3l0,0l4,3.6l0,0h0.1h0.2
			c0.1,0,0.3-0.1,0.4-0.1"/>
		<path class="st6" d="M257.1,50l-1.2,1l-0.4,0.3l-1,0.7c-0.3,0.2-0.6,0.4-0.9,0.6L253,53c-0.1,0.1-0.2,0.1-0.4,0.2
			c-0.3,0.1-0.3,0.1-0.4,0.2l-0.2,0.1c-0.2,0.1-0.4,0.1-0.6,0.1c-0.2-0.1-0.4-0.1-0.7-0.3l0,0c-1.2-0.6-2-1.9-2.8-3.6l0,0
			c-0.5-1.1-0.9-2.3-1-3.6c0-0.3,0-0.6-0.1-0.8c-0.1-3.2,0.5-6.4,1.8-9.4c0,0,0.1-0.1,0.1,0l0,0c0,1.2,0.1,2.4,0.5,3.6
			c0.6,1.9,1.5,3.7,2.6,5.4l0.2,0.3c0.1,0.2,0.2,0.4,0.4,0.5c0.4,0.6,0.9,1.2,1.4,1.8s1.1,1.2,1.8,1.7
			C256.1,49.5,256.5,49.8,257.1,50L257.1,50z"/>
	</g>
</g>
</svg>
